<?xml version="1.0" standalone="no"?>
<!DOCTYPE svg PUBLIC "-//W3C//DTD SVG 20010904//EN"
 "http://www.w3.org/TR/2001/REC-SVG-20010904/DTD/svg10.dtd">
<svg version="1.0" xmlns="http://www.w3.org/2000/svg"
 width="256.000000pt" height="256.000000pt" viewBox="0 0 256.000000 256.000000"
 preserveAspectRatio="xMidYMid meet">

<g transform="translate(0.000000,256.000000) scale(0.100000,-0.100000)"
fill="#000000" stroke="none">
<path d="M803 2366 c-171 -42 -318 -198 -338 -361 l-7 -56 -71 -35 c-140 -71
-232 -193 -257 -345 -22 -129 21 -282 103 -371 l35 -38 146 0 146 0 0 -80 0
-80 -60 0 c-43 0 -60 4 -60 13 0 21 -53 66 -90 77 -95 27 -187 -62 -165 -160
16 -72 95 -120 165 -100 37 11 90 56 90 77 0 10 20 13 76 13 114 0 114 0 114
130 l0 110 120 0 120 0 0 -260 0 -260 -112 0 -113 0 -17 29 c-41 74 -141 86
-206 27 -35 -33 -37 -38 -37 -96 0 -58 2 -63 37 -96 65 -59 165 -47 206 27
l17 29 135 0 c92 0 140 4 148 12 9 9 12 89 12 300 l0 288 160 0 160 0 0 -82 0
-83 40 0 40 0 0 83 0 82 140 0 140 0 0 -290 c0 -326 -4 -310 79 -310 l41 0 0
40 c0 36 -2 40 -25 40 l-25 0 0 260 0 260 25 0 c23 0 25 4 25 40 l0 40 -725 0
-725 0 -31 48 c-85 133 -78 306 18 445 36 52 125 114 190 133 58 17 57 16 67
114 12 122 98 234 224 293 58 27 77 31 147 30 117 0 182 -28 265 -112 46 -46
72 -81 84 -116 27 -72 38 -78 100 -53 77 31 240 36 324 10 l63 -20 -3 36 c-3
35 -6 37 -58 54 -70 22 -216 23 -294 3 -33 -9 -60 -14 -61 -13 -1 2 -15 27
-31 57 -92 173 -298 264 -491 217z m-437 -1371 c32 -49 -11 -106 -69 -91 -45
11 -53 81 -13 108 24 17 66 8 82 -17z m179 -341 c37 -15 38 -82 1 -106 -23
-16 -65 -8 -80 14 -40 57 12 117 79 92z"/>
<path d="M1753 2035 c0 -22 2 -30 4 -17 2 12 2 30 0 40 -3 9 -5 -1 -4 -23z"/>
<path d="M1164 1946 c-93 -23 -176 -93 -217 -185 -33 -72 -30 -179 6 -253 36
-72 111 -141 180 -164 64 -21 159 -22 210 -1 33 14 37 20 37 51 0 20 -2 36 -4
36 -2 0 -21 -7 -42 -16 -26 -11 -59 -15 -105 -12 -86 5 -150 42 -194 112 -27
44 -30 58 -30 126 0 68 3 82 30 126 44 70 108 107 194 112 46 3 79 -1 105 -12
21 -9 40 -16 42 -16 2 0 4 16 4 36 0 30 -4 37 -32 48 -51 21 -128 26 -184 12z"/>
<path d="M1265 1640 c-27 -27 -54 -50 -60 -50 -5 0 -30 14 -55 30 -25 16 -52
30 -61 30 -23 0 -42 -26 -35 -47 7 -22 129 -93 160 -93 13 0 40 18 65 43 39
41 42 47 39 91 l-3 47 -50 -51z"/>
<path d="M1753 1200 c0 -25 2 -35 4 -22 2 12 2 32 0 45 -2 12 -4 2 -4 -23z"/>
<path d="M1275 866 c-25 -18 -11 -58 18 -54 15 2 23 11 25 29 4 31 -18 44 -43
25z"/>
<path d="M1275 743 c-12 -12 -15 -47 -15 -179 l0 -164 -115 0 c-88 0 -115 3
-115 13 0 20 -53 66 -88 76 -100 29 -194 -67 -164 -167 30 -99 148 -128 224
-55 15 15 28 33 28 40 0 10 50 13 250 13 l250 0 0 40 0 40 -95 0 -95 0 0 153
c0 83 -3 162 -6 174 -7 27 -40 36 -59 16z m-333 -340 c37 -33 11 -103 -38
-103 -24 0 -54 33 -54 60 0 26 30 60 52 60 12 0 30 -7 40 -17z"/>
<path d="M1753 600 c0 -25 2 -35 4 -22 2 12 2 32 0 45 -2 12 -4 2 -4 -23z"/>
</g>
</svg>
